<svg width="412" height="412" viewBox="0 0 412 412" fill="none" xmlns="http://www.w3.org/2000/svg">
<rect width="412" height="412" rx="90" fill="black"/>
<g filter="url(#filter0_ddddd_4004_1907)">
<path d="M97.7816 106.979C95.4486 108.818 95 111.196 95 121.336C95.0449 133.449 96.66 144.576 100.653 160.547C105.05 178.179 110.164 190.113 115.862 196.17C116.849 197.247 117.657 198.144 117.657 198.234C117.657 198.324 116.535 200.387 115.144 202.81C113.754 205.278 111.824 208.822 110.882 210.706L109.132 214.206H115.907H122.682L119.721 217.75C110.478 228.832 102.044 245.566 101.191 254.45C101.057 256.02 101.012 257.276 101.102 257.276C101.236 257.276 103.031 256.558 105.095 255.661C108.998 254.046 115.144 252.341 117.298 252.341H118.509L117.881 254.091C115.952 259.564 114.651 270.242 115.997 269.704C133.045 262.75 140.493 261.718 150.094 264.993C155.612 266.877 155.882 267.102 157.542 271.364C163.015 285.451 174.725 298.013 187.287 303.307C193.434 305.91 197.068 306.672 204.47 306.942C212.142 307.211 216.718 306.583 222.73 304.384C236.908 299.225 249.066 286.573 255.392 270.422C256.693 267.146 257.052 266.563 258.936 265.397C262.75 262.974 264.903 262.48 271.095 262.48C277.69 262.525 282.176 263.557 290.386 266.922C293.213 268.044 295.95 269.12 296.398 269.255C297.206 269.524 297.251 269.3 296.982 264.634C296.802 261.538 296.309 258.353 295.636 255.975L294.514 252.251L296.937 252.52C299.853 252.835 305.999 254.764 308.871 256.199C310.037 256.783 311.114 257.276 311.249 257.276C311.697 257.276 311.473 253.373 310.755 250.098C308.961 241.529 301.648 227.89 293.572 218.154L290.342 214.206H297.116H303.846L301.872 210.258C300.795 208.104 298.866 204.56 297.61 202.362C296.353 200.163 295.322 198.279 295.322 198.144C295.322 198.055 296.264 196.888 297.475 195.587C304.205 188.139 310.351 171.719 314.793 149.152C317.305 136.41 317.933 130.578 317.978 121.111C317.978 111.6 317.575 109.446 315.466 107.293C314.255 106.082 313.896 105.992 312.011 106.216C306.942 106.799 298.193 110.254 285.9 116.4C267.819 125.418 251.309 136.141 242.202 144.8L238.657 148.12L233.902 147.357C226.14 146.011 218.917 145.563 206.489 145.563C194.017 145.563 186.838 146.011 178.942 147.357L174.052 148.165L171.405 145.518C162.432 136.545 145.024 125.239 125.104 115.458C116.042 110.972 109.312 108.235 104.332 106.934C100.025 105.857 99.2173 105.857 97.7816 106.979ZM119.227 127.527C130.309 132.956 146.55 142.871 155.478 149.735C157.497 151.26 159.426 152.741 159.74 153.01C160.234 153.369 159.516 153.997 156.241 155.882C147.985 160.727 138.878 169.027 131.341 178.538C129.366 181.006 127.437 183.563 126.989 184.146C126.271 185.268 126.271 185.268 125.553 184.371C124.117 182.486 119.9 173.783 117.477 167.726C112.138 154.311 107.203 129.322 108.953 124.7C109.491 123.399 112.318 124.162 119.227 127.527ZM303.846 124.88C305.91 128.828 300.93 154.132 295.232 168.219C292.764 174.411 287.381 185.089 286.797 184.999C286.663 184.999 284.958 182.845 282.984 180.243C275.357 170.193 265.442 160.996 256.693 155.882L252.61 153.504L253.687 152.651C266.249 142.736 286.124 130.488 297.251 125.777C301.917 123.803 303.173 123.669 303.846 124.88ZM176.43 191.998C177.865 192.76 179.211 194.241 180.288 196.26C181.006 197.606 181.141 198.862 181.141 205.009C181.141 211.155 181.006 212.411 180.288 213.757C178.314 217.481 176.116 218.827 171.943 218.827C167.771 218.827 165.572 217.481 163.598 213.757C162.881 212.411 162.746 211.155 162.746 205.009C162.746 198.458 162.836 197.651 163.733 195.991C164.855 193.882 167.053 191.863 168.489 191.549C169.027 191.459 169.879 191.28 170.373 191.145C171.719 190.876 175.129 191.37 176.43 191.998ZM245.522 191.998C246.957 192.76 248.303 194.241 249.38 196.26C250.098 197.606 250.232 198.862 250.232 205.009C250.232 211.155 250.098 212.411 249.38 213.757C247.406 217.481 245.208 218.827 241.035 218.827C236.863 218.827 234.664 217.481 232.69 213.757C231.972 212.411 231.838 211.155 231.838 205.009C231.838 198.458 231.928 197.651 232.825 195.991C233.946 193.882 236.145 191.863 237.581 191.549C238.119 191.459 238.971 191.28 239.465 191.145C240.811 190.876 244.221 191.37 245.522 191.998ZM219.5 267.819C226.319 268.133 226.678 268.223 226.678 270.063C226.678 274.325 216.763 287.246 210.303 291.329C206.265 293.886 203.483 292.899 197.337 286.707C191.235 280.651 186.3 273.158 186.3 269.973C186.3 268.133 186.928 267.999 197.068 267.595C204.739 267.281 209.136 267.326 219.5 267.819Z" fill="url(#paint0_linear_4004_1907)"/>
</g>
<defs>
<filter id="filter0_ddddd_4004_1907" x="81" y="104.119" width="250.978" height="266.881" filterUnits="userSpaceOnUse" color-interpolation-filters="sRGB">
<feFlood flood-opacity="0" result="BackgroundImageFix"/>
<feColorMatrix in="SourceAlpha" type="matrix" values="0 0 0 0 0 0 0 0 0 0 0 0 0 0 0 0 0 0 127 0" result="hardAlpha"/>
<feOffset dy="2"/>
<feGaussianBlur stdDeviation="2"/>
<feColorMatrix type="matrix" values="0 0 0 0 0 0 0 0 0 0 0 0 0 0 0 0 0 0 0.98 0"/>
<feBlend mode="normal" in2="BackgroundImageFix" result="effect1_dropShadow_4004_1907"/>
<feColorMatrix in="SourceAlpha" type="matrix" values="0 0 0 0 0 0 0 0 0 0 0 0 0 0 0 0 0 0 127 0" result="hardAlpha"/>
<feOffset dy="8"/>
<feGaussianBlur stdDeviation="4"/>
<feColorMatrix type="matrix" values="0 0 0 0 0 0 0 0 0 0 0 0 0 0 0 0 0 0 0.85 0"/>
<feBlend mode="normal" in2="effect1_dropShadow_4004_1907" result="effect2_dropShadow_4004_1907"/>
<feColorMatrix in="SourceAlpha" type="matrix" values="0 0 0 0 0 0 0 0 0 0 0 0 0 0 0 0 0 0 127 0" result="hardAlpha"/>
<feOffset dy="18"/>
<feGaussianBlur stdDeviation="5.5"/>
<feColorMatrix type="matrix" values="0 0 0 0 0 0 0 0 0 0 0 0 0 0 0 0 0 0 0.5 0"/>
<feBlend mode="normal" in2="effect2_dropShadow_4004_1907" result="effect3_dropShadow_4004_1907"/>
<feColorMatrix in="SourceAlpha" type="matrix" values="0 0 0 0 0 0 0 0 0 0 0 0 0 0 0 0 0 0 127 0" result="hardAlpha"/>
<feOffset dy="32"/>
<feGaussianBlur stdDeviation="6.5"/>
<feColorMatrix type="matrix" values="0 0 0 0 0 0 0 0 0 0 0 0 0 0 0 0 0 0 0.15 0"/>
<feBlend mode="normal" in2="effect3_dropShadow_4004_1907" result="effect4_dropShadow_4004_1907"/>
<feColorMatrix in="SourceAlpha" type="matrix" values="0 0 0 0 0 0 0 0 0 0 0 0 0 0 0 0 0 0 127 0" result="hardAlpha"/>
<feOffset dy="50"/>
<feGaussianBlur stdDeviation="7"/>
<feColorMatrix type="matrix" values="0 0 0 0 0 0 0 0 0 0 0 0 0 0 0 0 0 0 0.02 0"/>
<feBlend mode="normal" in2="effect4_dropShadow_4004_1907" result="effect5_dropShadow_4004_1907"/>
<feBlend mode="normal" in="SourceGraphic" in2="effect5_dropShadow_4004_1907" result="shape"/>
</filter>
<linearGradient id="paint0_linear_4004_1907" x1="216" y1="232.5" x2="306.5" y2="325.5" gradientUnits="userSpaceOnUse">
<stop stop-color="#ECECEC"/>
<stop offset="1" stop-color="#A4A4A4"/>
</linearGradient>
</defs>
</svg>
